<svg width="84" height="14" viewBox="0 0 84 14" fill="none" xmlns="http://www.w3.org/2000/svg">
<g clip-path="url(#clip0_43_333)">
<path d="M18.4831 10.1673V3.8327H25.6208V4.84411H19.7266V6.44107H25.4504V7.39924H19.7266V9.08492H25.74V10.185H18.4831V10.1673Z" fill="black"/>
<path d="M34.0191 10.1673C32.9629 9.12041 32.0089 7.96705 31.1401 6.79595L28.7041 8.51711V10.1673H27.4776V3.8327H28.7041V7.2218L33.508 3.8327H35.1945L32.043 6.08619C33.0821 7.50571 34.2746 8.92523 35.5352 10.185H34.0191V10.1673Z" fill="black"/>
<path d="M42.8773 5.58935C42.707 5.02154 41.6337 4.57794 40.288 4.57794C38.5674 4.57794 37.7668 4.95057 37.7668 5.57161C37.7668 6.37008 38.6867 6.47655 39.3681 6.47655C39.9984 6.47655 40.4243 6.42332 41.3441 6.42332C42.9114 6.42332 43.9846 6.79594 43.9846 8.17997C43.9846 9.45754 42.8943 10.3802 40.1347 10.3802C38.1927 10.3802 36.7958 9.81242 36.3529 8.64131L37.5283 8.32192C37.8179 8.96071 38.7037 9.4043 40.2369 9.4043C41.9233 9.4043 42.707 8.96071 42.707 8.32192C42.707 7.61216 41.9574 7.43472 41.1397 7.43472C40.5435 7.43472 40.0495 7.48796 39.2488 7.48796C38.1756 7.48796 36.4551 7.18631 36.4551 5.60709C36.4551 4.02788 38.4823 3.63751 40.288 3.63751C42.4174 3.63751 43.695 4.29404 43.9676 5.18124L42.8773 5.58935Z" fill="black"/>
<path d="M53.5924 8.32192C53.0984 9.70595 51.8548 10.3802 49.6402 10.3802C46.9487 10.3802 45.5518 9.564 45.5518 7.00887C45.5518 4.45374 46.9487 3.63751 49.6402 3.63751C51.8378 3.63751 52.9961 4.15209 53.5753 5.67807L52.3999 6.06844C52.1274 5.09252 51.4119 4.68441 49.6402 4.68441C47.5279 4.68441 46.8294 5.26996 46.8294 7.02661C46.8294 8.78327 47.5279 9.35107 49.6402 9.35107C51.463 9.35107 52.1785 8.81875 52.434 7.93155L53.5924 8.32192Z" fill="black"/>
<path d="M61.4796 10.1673L60.7812 8.46386H56.4713L55.7729 10.1673H54.4101L57.1527 3.81494H60.1168L62.8595 10.1673H61.4796ZM59.2821 4.8086H57.9534L56.829 7.52343H60.4064L59.2821 4.8086Z" fill="black"/>
<path d="M70.6445 10.1673C69.912 9.51078 69.3839 8.7123 69.0943 7.93156H65.5169V10.1673H64.2904V3.8327H69.5372C71.2067 3.8327 72.0073 4.61344 72.0073 5.83777C72.0073 6.90241 71.4451 7.62991 70.3549 7.8251C70.6615 8.58809 71.2578 9.40431 72.1436 10.1673H70.6445ZM65.5169 4.86185V6.95564H69.2987C70.0653 6.95564 70.7126 6.7782 70.7126 5.85552C70.7126 5.19899 70.2527 4.86185 69.5202 4.86185H65.5169Z" fill="black"/>
<path d="M79.8775 5.58935C79.7072 5.02154 78.6339 4.57794 77.2882 4.57794C75.5676 4.57794 74.767 4.95057 74.767 5.57161C74.767 6.37008 75.6869 6.47655 76.3683 6.47655C76.9986 6.47655 77.4245 6.42332 78.3444 6.42332C79.9116 6.42332 80.9848 6.79594 80.9848 8.17997C80.9848 9.45754 79.8945 10.3802 77.1519 10.3802C75.2099 10.3802 73.813 9.81242 73.3701 8.64131L74.5455 8.32192C74.8351 8.96071 75.7209 9.4043 77.2541 9.4043C78.9406 9.4043 79.7242 8.96071 79.7242 8.32192C79.7242 7.61216 78.9746 7.43472 78.157 7.43472C77.5607 7.43472 77.0667 7.48796 76.2661 7.48796C75.1929 7.48796 73.4723 7.18631 73.4723 5.60709C73.4723 4.02788 75.4995 3.63751 77.3052 3.63751C79.4346 3.63751 80.7122 4.29404 80.9848 5.18124L79.8775 5.58935Z" fill="black"/>
<path d="M81.4788 3.63751V2.82129H80.9848V2.66159H82.1602V2.82129H81.6662V3.63751H81.4788Z" fill="black"/>
<path d="M83.8126 3.63751V2.85677L83.2505 3.63751H83.0971L82.535 2.85677V3.63751H82.3646V2.66159H82.6372L83.1823 3.40684L83.7274 2.66159H84V3.63751H83.8126Z" fill="black"/>
<path d="M4.70168 13.6629C5.09349 13.1483 5.40012 12.5627 5.58751 11.924C3.44109 11.3916 1.83979 9.38657 1.83979 6.99113C1.83979 6.4943 1.90793 5.99747 2.04421 5.55387C1.68647 5.46515 1.3117 5.41191 0.919895 5.41191C0.664368 5.41191 0.408842 5.42966 0.153316 5.46515C0.0511052 5.96198 0 6.45881 0 6.99113C0 10.1141 1.97607 12.7757 4.70168 13.6629ZM3.16853 3.51331C4.05435 2.53739 5.31495 1.91635 6.71182 1.91635C8.1087 1.91635 9.3693 2.53739 10.2551 3.51331C10.681 3.03422 11.0217 2.46641 11.2602 1.86312C10.0507 0.709759 8.46644 0 6.71182 0C4.95721 0 3.35591 0.709759 2.16346 1.84537C2.38491 2.46641 2.74265 3.03422 3.16853 3.51331ZM7.83614 11.924C8.02352 12.5627 8.31312 13.1483 8.70493 13.6629C11.4305 12.7757 13.4236 10.1141 13.4236 6.99113C13.4236 6.47655 13.3725 5.96198 13.2703 5.48289C13.0148 5.4474 12.7763 5.42966 12.5038 5.42966C12.1119 5.42966 11.7372 5.48289 11.3794 5.57161C11.5157 6.03295 11.5839 6.51204 11.5839 7.00887C11.5839 9.38657 9.98256 11.3916 7.83614 11.924Z" fill="#FF5F01"/>
<path d="M6.69479 13.9823H6.72886L6.71182 14.0178C6.69479 14 6.69479 13.9823 6.69479 13.9823Z" fill="#FF5F01"/>
<path d="M12.5208 3.51332C12.5208 3.51332 12.5208 3.49557 12.5038 3.49557H12.5208C12.5378 3.49557 12.5208 3.51332 12.5208 3.51332Z" fill="#FF5F01"/>
<path d="M2.04421 5.53613C2.07828 5.41192 2.12939 5.28772 2.16346 5.16351C2.35084 4.66668 2.60637 4.20533 2.913 3.79722C2.99818 3.69076 3.08335 3.60204 3.16853 3.49557C4.05435 4.47149 5.31495 5.09253 6.71183 5.09253C8.1087 5.09253 9.3693 4.47149 10.2551 3.49557C10.3403 3.58429 10.4255 3.69076 10.5106 3.79722C10.8343 4.20533 11.0898 4.66668 11.2602 5.16351C11.3113 5.28772 11.3454 5.41192 11.3794 5.53613C9.23302 6.06845 7.63172 8.07352 7.63172 10.469C7.63172 10.9658 7.69986 11.4626 7.83614 11.9062C7.7169 11.9417 7.59765 11.9595 7.4784 11.9772C7.22288 12.0127 6.98439 12.0304 6.71183 12.0304C6.43926 12.0304 6.20077 12.0127 5.94525 11.9772C5.826 11.9595 5.70676 11.924 5.58751 11.9062C5.72379 11.4449 5.79193 10.9658 5.79193 10.469C5.79193 8.09127 4.19063 6.06845 2.04421 5.53613Z" fill="#FF5F01"/>
</g>
<defs>
<clipPath id="clip0_43_333">
<rect width="84" height="14" fill="white"/>
</clipPath>
</defs>
</svg>
