<svg width="152" height="24" viewBox="0 0 152 24" fill="none" xmlns="http://www.w3.org/2000/svg">
<g clip-path="url(#clip0_1_4334)">
<path d="M33.4456 17.4299V6.57056H46.3614V8.3044H35.6958V11.042H46.0531V12.6846H35.6958V15.5744H46.5772V17.4603H33.4456V17.4299Z" fill="white"/>
<path d="M61.5598 17.4299C59.6487 15.6352 57.9225 13.658 56.3504 11.6504L51.9423 14.601V17.4299H49.7229V6.57056H51.9423V12.3804L60.6351 6.57056H63.6868L57.9841 10.4337C59.8645 12.8671 62.0222 15.3006 64.3033 17.4603H61.5598V17.4299Z" fill="white"/>
<path d="M77.5876 9.58185C77.2794 8.60846 75.3374 7.84801 72.9022 7.84801C69.7888 7.84801 68.34 8.48679 68.34 9.55143C68.34 10.9202 70.0046 11.1028 71.2376 11.1028C72.3781 11.1028 73.1488 11.0115 74.8133 11.0115C77.6493 11.0115 79.5913 11.6503 79.5913 14.0229C79.5913 16.213 77.6184 17.7948 72.6247 17.7948C69.1106 17.7948 66.583 16.8214 65.7815 14.8138L67.9084 14.2663C68.4325 15.3613 70.0354 16.1218 72.8097 16.1218C75.8614 16.1218 77.2794 15.3613 77.2794 14.2663C77.2794 13.0495 75.923 12.7453 74.4434 12.7453C73.3645 12.7453 72.4706 12.8366 71.0218 12.8366C69.0798 12.8366 65.9664 12.3195 65.9664 9.61227C65.9664 6.90504 69.6347 6.23584 72.9022 6.23584C76.7553 6.23584 79.0672 7.36132 79.5604 8.88223L77.5876 9.58185Z" fill="white"/>
<path d="M96.9756 14.2663C96.0817 16.6389 93.8314 17.7948 89.8241 17.7948C84.9537 17.7948 82.426 16.3955 82.426 12.0153C82.426 7.63508 84.9537 6.23584 89.8241 6.23584C93.8006 6.23584 95.8967 7.11797 96.9448 9.73394L94.8178 10.4031C94.3246 8.73014 93.03 8.03052 89.8241 8.03052C86.0018 8.03052 84.7379 9.03432 84.7379 12.0457C84.7379 15.0571 86.0018 16.0305 89.8241 16.0305C93.1224 16.0305 94.4171 15.118 94.8795 13.5971L96.9756 14.2663Z" fill="white"/>
<path d="M111.25 17.4298L109.986 14.5096H102.187L100.923 17.4298H98.4573L103.42 6.54004H108.784L113.747 17.4298H111.25ZM107.273 8.24346H104.869L102.834 12.8975H109.308L107.273 8.24346Z" fill="white"/>
<path d="M127.834 17.4299C126.509 16.3044 125.553 14.9356 125.029 13.5972H118.556V17.4299H116.336V6.57056H125.83C128.851 6.57056 130.3 7.90896 130.3 10.0078C130.3 11.8329 129.283 13.0801 127.31 13.4147C127.865 14.7226 128.944 16.1219 130.547 17.4299H127.834ZM118.556 8.33481V11.9242H125.399C126.786 11.9242 127.957 11.62 127.957 10.0382C127.957 8.91276 127.125 8.33481 125.8 8.33481H118.556Z" fill="white"/>
<path d="M144.541 9.58185C144.233 8.60846 142.291 7.84801 139.856 7.84801C136.742 7.84801 135.294 8.48679 135.294 9.55143C135.294 10.9202 136.958 11.1028 138.191 11.1028C139.332 11.1028 140.102 11.0115 141.767 11.0115C144.603 11.0115 146.545 11.6503 146.545 14.0229C146.545 16.213 144.572 17.7948 139.609 17.7948C136.095 17.7948 133.567 16.8214 132.766 14.8138L134.893 14.2663C135.417 15.3613 137.02 16.1218 139.794 16.1218C142.846 16.1218 144.264 15.3613 144.264 14.2663C144.264 13.0495 142.907 12.7453 141.428 12.7453C140.349 12.7453 139.455 12.8366 138.006 12.8366C136.064 12.8366 132.951 12.3195 132.951 9.61227C132.951 6.90504 136.619 6.23584 139.887 6.23584C143.74 6.23584 146.052 7.36132 146.545 8.88223L144.541 9.58185Z" fill="white"/>
<path d="M147.437 6.23575V4.83651H146.543V4.56274H148.67V4.83651H147.776V6.23575H147.437Z" fill="white"/>
<path d="M151.659 6.23575V4.89735L150.642 6.23575H150.365L149.348 4.89735V6.23575H149.039V4.56274H149.533L150.519 5.84031L151.505 4.56274H151.999V6.23575H151.659Z" fill="white"/>
<path d="M8.50781 23.4221C9.21679 22.5399 9.77165 21.5361 10.1107 20.4411C6.22673 19.5285 3.32914 16.0913 3.32914 11.9848C3.32914 11.1331 3.45244 10.2814 3.69905 9.52091C3.05171 9.36882 2.37355 9.27757 1.66457 9.27757C1.20219 9.27757 0.739809 9.30798 0.277428 9.36882C0.0924762 10.2205 0 11.0722 0 11.9848C0 17.3384 3.57575 21.9011 8.50781 23.4221ZM5.73352 6.02281C7.33644 4.34981 9.61752 3.28517 12.1452 3.28517C14.6729 3.28517 16.954 4.34981 18.5569 6.02281C19.3275 5.20152 19.944 4.22814 20.3756 3.19392C18.187 1.21673 15.3202 0 12.1452 0C8.97019 0 6.0726 1.21673 3.91482 3.1635C4.31555 4.22814 4.96289 5.20152 5.73352 6.02281ZM14.1797 20.4411C14.5188 21.5361 15.0428 22.5399 15.7518 23.4221C20.6838 21.9011 24.2904 17.3384 24.2904 11.9848C24.2904 11.1027 24.1979 10.2205 24.013 9.39924C23.5506 9.3384 23.119 9.30798 22.6258 9.30798C21.9169 9.30798 21.2387 9.39924 20.5914 9.55133C20.838 10.3422 20.9613 11.1635 20.9613 12.0152C20.9613 16.0913 18.0637 19.5285 14.1797 20.4411Z" fill="#FF5F01"/>
<path d="M12.1133 23.9695H12.1749L12.1441 24.0303C12.1133 23.9999 12.1133 23.9695 12.1133 23.9695Z" fill="#FF5F01"/>
<path d="M22.6558 6.02285C22.6558 6.02285 22.6558 5.99243 22.625 5.99243H22.6558C22.6867 5.99243 22.6558 6.02285 22.6558 6.02285Z" fill="#FF5F01"/>
<path d="M3.69897 9.49053C3.76063 9.2776 3.8531 9.06467 3.91475 8.85175C4.25383 8.00004 4.71621 7.20916 5.27107 6.50954C5.4252 6.32703 5.57932 6.17494 5.73345 5.99243C7.33637 7.66544 9.61745 8.73007 12.1451 8.73007C14.6728 8.73007 16.9539 7.66544 18.5568 5.99243C18.7109 6.14452 18.8651 6.32703 19.0192 6.50954C19.6049 7.20916 20.0673 8.00004 20.3755 8.85175C20.468 9.06467 20.5296 9.2776 20.5913 9.49053C16.7073 10.4031 13.8097 13.8403 13.8097 17.9468C13.8097 18.7985 13.933 19.6502 14.1796 20.4107C13.9638 20.4715 13.7481 20.5019 13.5323 20.5324C13.0699 20.5932 12.6383 20.6236 12.1451 20.6236C11.6519 20.6236 11.2204 20.5932 10.758 20.5324C10.5422 20.5019 10.3264 20.4411 10.1107 20.4107C10.3573 19.6198 10.4806 18.7985 10.4806 17.9468C10.4806 13.8708 7.58297 10.4031 3.69897 9.49053Z" fill="#FF5F01"/>
</g>
<defs>
<clipPath id="clip0_1_4334">
<rect width="152" height="24" fill="white"/>
</clipPath>
</defs>
</svg>
